<svg width="150" height="30" viewBox="0 0 150 30" fill="none" xmlns="http://www.w3.org/2000/svg">
  <path d="M68.8155 13.16V29.6H73.8884V13.16H82.8452V29.6H87.9181V13.16H96.3188V29.6H101.392V9.4H87.8775V7.84C87.8775 6.50666 88.1886 5.54667 88.8109 4.96C89.4332 4.34666 90.2719 4.04 91.3271 4.04C91.787 4.04 92.2605 4.08 92.7475 4.16C93.2345 4.24 93.6538 4.34667 94.0055 4.48V0.559999C93.5186 0.346667 92.9369 0.2 92.2605 0.119997C91.6111 0.04 90.9889 0 90.3937 0C87.9316 0 86.0513 0.639999 84.7526 1.92C83.481 3.2 82.8452 5.09333 82.8452 7.6V9.4H73.8478V7.84C73.8478 6.93333 73.9966 6.21333 74.2942 5.68C74.6189 5.12 75.0518 4.70667 75.5929 4.44C76.1611 4.17333 76.7969 4.04 77.5003 4.04C77.9602 4.04 78.4337 4.08 78.9207 4.16C79.4077 4.24 79.8271 4.34667 80.1788 4.48V0.559999C79.6918 0.346667 79.1101 0.2 78.4337 0.119997C77.7844 0.04 77.1621 0 76.5669 0C74.0237 0 72.0892 0.639999 70.7635 1.92C69.4649 3.2 68.8155 5.09333 68.8155 7.6V9.4H64.5V13.16H68.8155Z" fill="white"/>
  <path fill-rule="evenodd" clip-rule="evenodd" d="M61.935 13.16H61.9329C61.9187 13.5902 61.9117 14.0168 61.9117 14.44V29.6H56.8794L56.8496 26.5524C56.3581 27.432 55.6375 28.1678 54.6879 28.76C53.3622 29.5867 51.8606 30 50.1832 30C48.3975 30 46.8283 29.5867 45.4755 28.76C44.1228 27.9067 43.0676 26.6933 42.31 25.12C41.5525 23.5467 41.1737 21.6667 41.1737 19.48C41.1737 17.2933 41.5525 15.4267 42.31 13.88C43.0676 12.3067 44.1228 11.1067 45.4755 10.28C46.8283 9.42667 48.3975 9 50.1832 9C51.9147 9 53.4298 9.42667 54.7285 10.28C55.7613 10.924 56.5231 11.7461 57.014 12.7462L57.015 9.4H61.935V13.16ZM51.6036 26.16C53.1998 26.16 54.485 25.6133 55.4589 24.52C56.4329 23.4 56.9199 21.72 56.9199 19.48C56.9199 17.24 56.4329 15.5733 55.4589 14.48C54.485 13.3867 53.1998 12.84 51.6036 12.84C50.0073 12.84 48.7222 13.3867 47.7482 14.48C46.7742 15.5733 46.2872 17.24 46.2872 19.48C46.2872 21.72 46.7607 23.4 47.7076 24.52C48.6816 25.6133 49.9802 26.16 51.6036 26.16Z" fill="white"/>
  <path d="M4.95113 29.16C6.89912 29.72 9.02296 30 11.3227 30C13.6224 30 15.6109 29.6533 17.2884 28.96C18.9658 28.24 20.2645 27.2533 21.1844 26C22.1042 24.72 22.5642 23.24 22.5642 21.56C22.5642 19.5067 21.9148 17.88 20.6162 16.68C19.3175 15.4533 17.3154 14.5733 14.6099 14.04L10.0646 13.16C8.46833 12.84 7.332 12.3867 6.65562 11.8C6.00629 11.2133 5.68163 10.4267 5.68163 9.44C5.68163 8.16 6.2092 7.16 7.26437 6.44C8.34658 5.69333 9.84815 5.32 11.7691 5.32C13.4736 5.32 15.0157 5.56 16.3955 6.04C17.7754 6.49333 19.047 7.2 20.2104 8.16L21.8337 4.32C20.6703 3.25333 19.2228 2.44 17.4913 1.88C15.7598 1.29333 13.8794 0.999999 11.8502 0.999999C9.5776 0.999999 7.58903 1.36 5.88454 2.08C4.18005 2.8 2.85434 3.81333 1.9074 5.12C0.960468 6.42666 0.486998 7.96 0.486998 9.72C0.486998 11.8267 1.13632 13.5067 2.43498 14.76C3.73364 16.0133 5.69515 16.9067 8.31952 17.44L12.9054 18.36C14.5828 18.7067 15.7462 19.1467 16.3955 19.68C17.0449 20.1867 17.3695 20.9333 17.3695 21.92C17.3695 23.04 16.8961 23.9467 15.9491 24.64C15.0022 25.3333 13.46 25.68 11.3227 25.68C10.0511 25.68 8.8471 25.5733 7.71078 25.36C6.57445 25.12 5.50576 24.7867 4.50471 24.36C3.50367 23.9067 2.5432 23.36 1.62332 22.72L0 26.76C1.37983 27.7733 3.0302 28.5733 4.95113 29.16Z" fill="white"/>
  <path d="M30.1389 28.12C31.3835 29.3733 33.2232 30 35.6582 30C36.1723 30 36.6999 29.9467 37.241 29.84C37.8091 29.76 38.3232 29.6267 38.7831 29.44V25.48C38.4314 25.6133 38.0662 25.72 37.6874 25.8C37.3357 25.88 36.9028 25.92 36.3887 25.92C35.4418 25.92 34.6978 25.64 34.1567 25.08C33.6155 24.52 33.345 23.5467 33.345 22.16V13.16H40.3237L42.9 9.4H33.345V2.96L28.2721 2.955V9.4H24.3356V13.16H28.2721V22.48C28.2721 24.9867 28.8944 26.8667 30.1389 28.12Z" fill="white"/>
  <path d="M96.0347 5.145V0.719999H101.385V5.145H96.0347Z" fill="white"/>
  <path fill-rule="evenodd" clip-rule="evenodd" d="M110.683 28.72C112.225 29.5733 114.052 30 116.162 30C118.272 30 120.099 29.5733 121.641 28.72C123.21 27.8667 124.414 26.6533 125.253 25.08C126.118 23.5067 126.551 21.64 126.551 19.48C126.551 17.32 126.118 15.4667 125.253 13.92C125.033 13.5087 124.789 13.1221 124.52 12.76H130.89C130.914 13.326 130.926 13.886 130.926 14.44V29.6H135.999V18.2C135.999 16.6 136.459 15.32 137.379 14.36C138.299 13.4 139.543 12.92 141.112 12.92C142.384 12.92 143.331 13.28 143.953 14C144.602 14.6933 144.927 15.8533 144.927 17.48V29.6H150V17.24C150 14.4133 149.391 12.3333 148.174 11C146.956 9.66666 145.144 9 142.736 9C141.058 9 139.584 9.38667 138.312 10.16C137.374 10.7111 136.605 11.4437 136.005 12.358V9H116.16C114.051 9.00027 112.225 9.42693 110.683 10.28C109.141 11.1333 107.937 12.3467 107.071 13.92C106.233 15.4667 105.813 17.32 105.813 19.48C105.813 21.64 106.233 23.5067 107.071 25.08C107.937 26.6533 109.141 27.8667 110.683 28.72ZM119.977 24.52C119.03 25.6133 117.758 26.16 116.162 26.16C114.566 26.16 113.294 25.6133 112.347 24.52C111.4 23.4 110.927 21.72 110.927 19.48C110.927 17.24 111.4 15.5733 112.347 14.48C113.294 13.3867 114.566 12.84 116.162 12.84C117.758 12.84 119.03 13.3867 119.977 14.48C120.924 15.5733 121.397 17.24 121.397 19.48C121.397 21.72 120.924 23.4 119.977 24.52Z" fill="white"/>
</svg>